<svg xmlns="http://www.w3.org/2000/svg" viewBox="0 0 640 728" font-family="system-ui, -apple-system, 'Segoe UI', sans-serif">
  <rect x="0" y="0" width="640" height="728" rx="12" fill="#fcfcfb" stroke="#e1e0d9" stroke-width="1"/>

  <rect x="492" y="16" width="132" height="24" rx="12" fill="#f0efec"/>
  <text x="558" y="32" text-anchor="middle" font-size="11" letter-spacing="0.5" fill="#898781">ILLUSTRATIVE MOCKUP</text>

  <text x="24" y="40" font-size="18" font-weight="700" fill="#0b0b0b">Cost &amp; Usage Observability</text>
  <text x="24" y="60" font-size="12" fill="#898781">Real-time cost tracking, attributed by feature, department, and user</text>

  <!-- stat tiles -->
  <rect x="24" y="84" width="184" height="96" rx="10" fill="#ffffff" stroke="#e1e0d9" stroke-width="1"/>
  <text x="40" y="108" font-size="12" fill="#898781">TOTAL SPEND</text>
  <text x="40" y="140" font-size="26" font-weight="700" fill="#0b0b0b">$4,820</text>
  <rect x="40" y="150" width="140" height="20" rx="10" fill="#f0efec"/>
  <text x="52" y="164" font-size="11" fill="#52514e">+8.4% vs. prior 30d</text>

  <rect x="228" y="84" width="184" height="96" rx="10" fill="#ffffff" stroke="#e1e0d9" stroke-width="1"/>
  <text x="244" y="108" font-size="12" fill="#898781">COST PER ANSWER</text>
  <text x="244" y="140" font-size="26" font-weight="700" fill="#0b0b0b">$0.38</text>
  <rect x="244" y="150" width="140" height="20" rx="10" fill="#e3f6e3"/>
  <text x="256" y="164" font-size="11" fill="#0b6b0b">-12% vs. prior 30d</text>

  <rect x="432" y="84" width="184" height="96" rx="10" fill="#ffffff" stroke="#e1e0d9" stroke-width="1"/>
  <text x="448" y="108" font-size="12" fill="#898781">TOP FEATURE</text>
  <text x="448" y="136" font-size="16" font-weight="700" fill="#0b0b0b">Company Reports</text>
  <text x="448" y="156" font-size="11" fill="#898781">$1,940 · 40% of spend</text>

  <!-- daily spend trend -->
  <text x="24" y="210" font-size="13" font-weight="600" fill="#0b0b0b">Daily spend — last 14 days</text>

  <line x1="60" y1="245" x2="600" y2="245" stroke="#e1e0d9" stroke-width="1"/>
  <line x1="60" y1="287" x2="600" y2="287" stroke="#e1e0d9" stroke-width="1"/>
  <line x1="60" y1="330" x2="600" y2="330" stroke="#c3c2b7" stroke-width="1.5"/>

  <path d="M 70 277 L 110 273 L 150 274 L 190 269 L 230 265 L 270 267 L 310 261 L 350 263 L 390 258 L 430 255 L 470 259 L 510 253 L 550 249 L 590 245 L 590 330 L 70 330 Z" fill="#cde2fb" opacity="0.55"/>
  <polyline points="70,277 110,273 150,274 190,269 230,265 270,267 310,261 350,263 390,258 430,255 470,259 510,253 550,249 590,245" fill="none" stroke="#2a78d6" stroke-width="2.5" stroke-linejoin="round" stroke-linecap="round"/>

  <text x="70" y="346" font-size="11" fill="#898781">-14d</text>
  <text x="330" y="346" text-anchor="middle" font-size="11" fill="#898781">-7d</text>
  <text x="590" y="346" text-anchor="end" font-size="11" fill="#898781">Today</text>

  <!-- spend by department -->
  <text x="24" y="384" font-size="13" font-weight="600" fill="#0b0b0b">Spend by department</text>

  <text x="170" y="421" text-anchor="end" font-size="12" fill="#52514e">Investment Research</text>
  <rect x="180" y="404" width="410" height="24" rx="4" fill="#2a78d6"/>
  <text x="582" y="421" text-anchor="end" font-size="12" font-weight="600" fill="#ffffff">$1,940</text>

  <text x="170" y="465" text-anchor="end" font-size="12" fill="#52514e">Risk &amp; Compliance</text>
  <rect x="180" y="448" width="254" height="24" rx="4" fill="#9ec5f4"/>
  <text x="442" y="465" font-size="12" fill="#52514e">$1,205</text>

  <text x="170" y="509" text-anchor="end" font-size="12" fill="#52514e">Investor Relations</text>
  <rect x="180" y="492" width="188" height="24" rx="4" fill="#9ec5f4"/>
  <text x="376" y="509" font-size="12" fill="#52514e">$890</text>

  <text x="170" y="553" text-anchor="end" font-size="12" fill="#52514e">Executive Reporting</text>
  <rect x="180" y="536" width="166" height="24" rx="4" fill="#9ec5f4"/>
  <text x="354" y="553" font-size="12" fill="#52514e">$785</text>

  <!-- top spenders -->
  <text x="24" y="596" font-size="13" font-weight="600" fill="#0b0b0b">Top spenders this period</text>
  <text x="40" y="616" font-size="12" fill="#52514e">Analyst One — Investment Research — $412</text>
  <text x="40" y="632" font-size="12" fill="#52514e">Risk Reviewer — Risk &amp; Compliance — $298</text>
  <text x="40" y="648" font-size="12" fill="#52514e">IR Lead — Investor Relations — $176</text>

  <!-- alert callout -->
  <rect x="24" y="672" width="592" height="40" rx="10" fill="#fef3d9"/>
  <polygon points="47,679 40,692 54,692" fill="none" stroke="#a16a00" stroke-width="1.6" stroke-linejoin="round"/>
  <line x1="47" y1="683" x2="47" y2="687" stroke="#a16a00" stroke-width="1.6" stroke-linecap="round"/>
  <circle cx="47" cy="690" r="0.9" fill="#a16a00"/>
  <text x="64" y="696" font-size="12" fill="#a16a00">Company Z's queries cost 2.3x the account average — flagged for review.</text>
</svg>
